<?xml version="1.0" encoding="iso-8859-1"?>
<!-- Generator: Adobe Illustrator 19.0.0, SVG Export Plug-In . SVG Version: 6.00 Build 0)  -->
<svg version="1.1" id="Layer_1" xmlns="http://www.w3.org/2000/svg" xmlns:xlink="http://www.w3.org/1999/xlink" x="0px" y="0px"
	 viewBox="0 0 511.996 511.996" style="enable-background:new 0 0 511.996 511.996;" xml:space="preserve">
<g>
	<g>
		<path d="M456.391,408.794c-4.15,0-7.515,3.365-7.515,7.515v56.611H231.95c-4.15,0-7.515,3.365-7.515,7.515
			s3.365,7.515,7.515,7.515h224.44c4.15,0,7.515-3.365,7.515-7.515v-64.126C463.905,412.157,460.541,408.794,456.391,408.794z"/>
	</g>
</g>
<g>
	<g>
		<path d="M459.751,217.21c-2.546-1.273-5.593-0.999-7.869,0.709l-27.554,20.666l-27.554-20.666c-2.672-2.004-6.345-2.004-9.018,0
			l-12.648,9.486c-1.209-5.594-3.104-11.111-5.697-16.478c-2.217-4.589-4.825-9.196-7.763-13.708l25.882,7.034
			c4.058,1.104,8.339-1.462,9.291-5.554c0.903-3.884-1.503-7.904-5.349-8.949l-43.419-11.8c-0.636-0.173-1.274-0.249-1.905-0.255
			c-6-6.242-12.59-11.811-19.539-16.269c5.547-15.351,11.425-30.025,17.508-43.754c0.15,0.051,0.298,0.106,0.453,0.148
			l54.146,14.716c4.058,1.104,8.339-1.462,9.291-5.554c0.903-3.885-1.503-7.904-5.349-8.949l-52.192-14.185
			c9.793-20.582,19.979-38.587,30.052-52.944c17.942-25.572,34.663-38.487,45.865-35.445c11.52,3.131,19.698,24.564,21.876,57.334
			c2.396,36.033-2.234,84.285-13.037,135.868c-0.817,3.901,1.67,7.872,5.541,8.832c4.082,1.013,8.308-1.637,9.17-5.752
			c20.263-96.76,22.058-199.461-19.607-210.785c-18.194-4.945-39.675,9.34-62.11,41.317
			c-19.135,27.271-38.558,66.887-55.065,112.188c-6.19-2.439-12.527-3.891-18.871-4.05c-11.625-0.284-27.462,3.622-41.452,21.895
			l-15.462-32.002c7.513,2.249,15.752,1.627,22.818-1.787c10.107-4.884,16.906-14.881,17.743-26.092
			c0.2-2.682-1.048-5.267-3.275-6.778c-9.303-6.311-21.362-7.199-31.467-2.316c-7.187,3.472-12.687,9.538-15.575,16.78l-2.352-4.867
			c-1.806-3.736-6.298-5.303-10.036-3.497c-3.737,1.806-5.302,6.298-3.497,10.036l27.564,57.049
			c-0.866-0.016-1.723-0.019-2.568-0.005c-4.15,0.067-7.46,3.486-7.393,7.635c0.067,4.15,3.505,7.458,7.635,7.393
			c4.204-0.065,8.791,0.32,13.635,1.151c3.163,0.543,6.324-0.983,7.865-3.8c9.545-17.451,21.455-26.107,35.437-25.771
			c6.526,0.164,13.163,2.231,19.614,5.629c0.288,0.178,0.592,0.336,0.909,0.476c17.148,9.389,32.865,28.143,41.458,45.926
			c3.088,6.392,4.957,13.003,5.555,19.65c0.053,0.586,0.029,0.525-0.434,0.872c-0.267,0.199-0.532,0.399-0.799,0.598l-27.554-20.666
			c-2.672-2.004-6.345-2.004-9.018,0l-27.554,20.666l-27.554-20.666c-2.672-2.004-6.345-2.004-9.018,0l-27.173,20.38
			c-3.32,2.49-3.993,7.201-1.503,10.521c2.49,3.32,7.201,3.993,10.521,1.503l22.664-16.998l27.554,20.666
			c2.672,2.004,6.345,2.004,9.018,0l27.554-20.666l27.554,20.666c2.672,2.004,6.345,2.004,9.018,0l27.554-20.666l27.554,20.666
			c2.672,2.004,6.345,2.004,9.018,0l20.039-15.029v145.285c0,4.15,3.365,7.515,7.515,7.515c4.15,0,7.515-3.365,7.515-7.515V223.932
			C463.905,221.085,462.297,218.482,459.751,217.21z M249.718,116.861c3.83-1.851,8.196-2.117,12.165-0.87
			c-1.49,3.885-4.413,7.139-8.242,8.99c-3.829,1.85-8.195,2.117-12.165,0.87C242.967,121.966,245.889,118.712,249.718,116.861z"/>
	</g>
</g>
<g>
	<g>
		<path d="M312.108,312.605h-56.11c-4.15,0-7.515,3.365-7.515,7.515c0,4.15,3.365,7.515,7.515,7.515h56.11
			c4.15,0,7.515-3.365,7.515-7.515C319.622,315.97,316.258,312.605,312.108,312.605z"/>
	</g>
</g>
<g>
	<g>
		<path d="M360.202,360.699H255.998c-4.15,0-7.515,3.365-7.515,7.515s3.365,7.515,7.515,7.515h104.204
			c4.15,0,7.515-3.365,7.515-7.515S364.352,360.699,360.202,360.699z"/>
	</g>
</g>
<g>
	<g>
		<path d="M360.202,408.794H255.998c-4.15,0-7.515,3.365-7.515,7.515s3.365,7.515,7.515,7.515h104.204
			c4.15,0,7.515-3.365,7.515-7.515S364.352,408.794,360.202,408.794z"/>
	</g>
</g>
<g>
	<g>
		<path d="M209.613,160.534l-42.289-36.248V87.163h0.501h8.016c4.15,0,7.515-3.365,7.515-7.515c0-4.15-3.365-7.515-7.515-7.515
			h-0.501v-40.58c0-4.15-3.365-7.515-7.515-7.515h-64.126c-4.15,0-7.515,3.365-7.515,7.515v40.58h-0.501
			c-4.15,0-7.515,3.365-7.515,7.515c0,4.15,3.365,7.515,7.515,7.515h8.016h0.501v37.123l-42.289,36.248
			c-8.783,7.529-13.821,18.481-13.821,30.05v281.835c0,21.823,17.755,39.578,39.578,39.578h96.189
			c21.823,0,39.578-17.755,39.578-39.578V190.583C223.434,179.014,218.396,168.062,209.613,160.534z M111.214,39.069h49.096v33.065
			h-0.501h-48.094h-0.501V39.069z M63.119,303.9c2.837-0.2,5.683-0.313,8.517-0.313c38.659,0,64.627,16.838,64.627,32.564
			c0,15.726-25.968,32.564-64.627,32.564c-2.834,0-5.68-0.112-8.517-0.313V303.9z M63.119,383.474
			c2.839,0.178,5.684,0.271,8.517,0.271c44.668,0,79.656-20.905,79.656-47.593c0-26.688-34.989-47.593-79.656-47.593
			c-2.833,0-5.678,0.092-8.517,0.271v-33.335h105.206v161.316H63.119V383.474z M208.404,472.418
			c0,13.536-11.013,24.548-24.548,24.548H87.667c-13.536,0-24.548-11.013-24.548-24.548v-40.58H175.84
			c4.15,0,7.515-3.365,7.515-7.515V247.978c0-4.15-3.365-7.515-7.515-7.515H63.119v-49.88c0-7.175,3.124-13.968,8.573-18.639
			l44.913-38.497c1.666-1.428,2.624-3.512,2.624-5.705v-40.58h33.065v40.58c0,2.193,0.959,4.278,2.624,5.705l44.913,38.497
			c5.449,4.669,8.573,11.463,8.573,18.638V472.418z"/>
	</g>
</g>
<g>
</g>
<g>
</g>
<g>
</g>
<g>
</g>
<g>
</g>
<g>
</g>
<g>
</g>
<g>
</g>
<g>
</g>
<g>
</g>
<g>
</g>
<g>
</g>
<g>
</g>
<g>
</g>
<g>
</g>
</svg>
